<svg width="368" height="500" fill="none" xmlns="http://www.w3.org/2000/svg"><mask id="a" maskUnits="userSpaceOnUse" x="0" y="0" width="368" height="500"><path fill="#C4C4C4" d="M0 0h368v500H0z"/></mask><g mask="url(#a)"><path fill-rule="evenodd" clip-rule="evenodd" d="M-14.705 687.474H-61.5S126.348 109.297 146.25 48.061C155.562 19.411 182.257.013 212.377.013h83.657c25.228 0 46.283 10.656 59.374 28.663 13.082 18.008 16.793 41.05 9.165 64.557-7.639 23.506-14.854 45.696-21.459 66.027-8.918 27.451-33.624 46.367-62.189 47.906 0 0-.148-.049 39.875-123.234 3.534-10.871 2.244-21.512-3.308-29.143-5.541-7.63-14.892-12.146-27.265-12.146h-71.786c-14.096 0-26.587 9.077-30.948 22.484L-14.705 687.474z" fill="#F0145A"/><path fill-rule="evenodd" clip-rule="evenodd" d="M280.916 207.167h-94.318l41.558-126.393 47.017.278-27.301 83.355 46.877.028-13.833 42.732z" fill="url(#paint0_linear)"/><path transform="rotate(17.888 66.973 290.276)" fill="url(#paint1_linear)" d="M66.973 290.276h44.551V510.88H66.973z"/></g><defs><linearGradient id="paint0_linear" x1="186.591" y1="182.958" x2="291.51" y2="237.797" gradientUnits="userSpaceOnUse"><stop stop-color="#F0145A"/><stop offset="1" stop-color="#693264"/></linearGradient><linearGradient id="paint1_linear" x1="89.248" y1="290.276" x2="89.248" y2="510.88" gradientUnits="userSpaceOnUse"><stop offset=".167" stop-color="#323264" stop-opacity="0"/><stop offset="1" stop-color="#323264"/></linearGradient></defs></svg>