<svg width="132" height="28" fill="none" xmlns="http://www.w3.org/2000/svg"><path d="M1.667 26.667l2.44-3.276-2.291-2.502h.699l3.293 3.68v-3.68h.55v3.68l3.293-3.68h.699l-2.301 2.502 2.45 3.276H9.82L7.7 23.789 6.357 25.25v1.417h-.55V25.25l-1.344-1.472-2.12 2.889h-.677zm10.17 0v-5.778h.556v5.042l3.898-5.042h.556v5.778h-.556v-5.042l-3.898 5.042h-.556zm6.1 0l.105-.51c.18.052.325.078.435.078.125 0 .23-.01.314-.028a.774.774 0 00.28-.15.88.88 0 00.248-.325c.067-.14.13-.334.193-.582.066-.247.118-.546.154-.896.04-.354.074-.788.1-1.3.025-.513.04-1.1.043-1.76v-.305h3.915v5.778h-.556v-5.28h-2.83v.155c0 .675-.017 1.275-.05 1.799-.029.52-.07.963-.12 1.328a5.223 5.223 0 01-.199.935 3.3 3.3 0 01-.259.609 1.037 1.037 0 01-.33.348 1.119 1.119 0 01-.38.155 2.362 2.362 0 01-1.063-.05zm7.494-2.889c0-.402.075-.788.226-1.157.15-.368.354-.69.611-.962.257-.277.57-.497.941-.659a2.867 2.867 0 011.184-.249 2.83 2.83 0 011.509.415 2.83 2.83 0 011.057 1.107c.253.46.38.963.38 1.505 0 .539-.127 1.039-.38 1.5a2.95 2.95 0 01-1.068 1.112 2.868 2.868 0 01-1.52.415c-.415 0-.805-.081-1.172-.244a2.851 2.851 0 01-.937-.652 3.098 3.098 0 01-.83-2.131zm.595 0c0 .697.227 1.29.683 1.776.458.484 1.02.725 1.684.725.419 0 .808-.11 1.168-.332a2.546 2.546 0 001.178-2.17c0-.693-.231-1.283-.694-1.77-.462-.49-1.02-.736-1.674-.736a2.18 2.18 0 00-1.178.338c-.36.221-.644.525-.853.913a2.58 2.58 0 00-.314 1.256zm7.009 2.889v-5.778h.556v5.042l3.898-5.042h.556v5.778h-.556v-5.042l-3.898 5.042h-.556zm.986-8.024l.462-.1c.147.55.5.825 1.057.825.562 0 .916-.275 1.063-.825l.462.1c-.07.376-.244.688-.523.935a1.46 1.46 0 01-1.002.37 1.46 1.46 0 01-1.002-.37 1.617 1.617 0 01-.517-.935zm9.497 8.024v-5.778h.557v3.703l3.562-3.703h.732l-2.516 2.557 2.593 3.22h-.699l-2.274-2.822-1.398 1.417v1.406h-.557zm5.875-2.889c0-.402.076-.788.226-1.157.15-.368.354-.69.611-.962a2.79 2.79 0 01.942-.659 2.86 2.86 0 011.184-.249 2.83 2.83 0 011.508.415 2.83 2.83 0 011.057 1.107c.254.46.38.963.38 1.505 0 .539-.126 1.039-.38 1.5a2.95 2.95 0 01-1.068 1.112 2.868 2.868 0 01-1.52.415c-.414 0-.805-.081-1.172-.244a2.851 2.851 0 01-.936-.652 3.096 3.096 0 01-.832-2.131zm.595 0c0 .697.228 1.29.683 1.776a2.23 2.23 0 001.685.725c.418 0 .807-.11 1.167-.332a2.546 2.546 0 001.178-2.17c0-.693-.231-1.283-.694-1.77-.462-.49-1.02-.736-1.673-.736a2.18 2.18 0 00-1.179.338c-.36.221-.644.525-.853.913a2.58 2.58 0 00-.314 1.256zm7.01 2.889v-5.778h.5l2.346 3.32 2.346-3.32h.495v5.778h-.556v-4.815l-2.313 3.193-2.285-3.193v4.815h-.534zm7.785 0v-5.778h4.785v5.778h-.556v-5.28h-3.673v5.28h-.556zm5.88 0l.105-.51c.18.052.325.078.435.078.124 0 .23-.01.313-.028a.777.777 0 00.282-.15.879.879 0 00.247-.325c.066-.14.13-.334.193-.582.066-.247.118-.546.154-.896a21.1 21.1 0 00.1-1.3c.025-.513.04-1.1.043-1.76v-.305h3.915v5.778h-.556v-5.28h-2.83v.155c0 .675-.017 1.275-.05 1.799-.029.52-.07.963-.12 1.328a5.249 5.249 0 01-.199.935 3.378 3.378 0 01-.258.609 1.04 1.04 0 01-.33.348c-.133.082-.26.133-.38.155a2.362 2.362 0 01-1.063-.05zm7.494-2.9c0-.413.07-.804.21-1.173a3.02 3.02 0 01.567-.963c.238-.27.526-.483.864-.642a2.54 2.54 0 011.084-.238c.525 0 .99.135 1.393.404.408.266.718.627.931 1.085a3.603 3.603 0 01.308 1.765h-4.773c.047.694.287 1.247.72 1.66.438.41.95.614 1.537.614.756 0 1.413-.3 1.971-.902l.386.338a3.68 3.68 0 01-1.046.808c-.371.188-.816.282-1.333.282-.374 0-.734-.074-1.08-.221a2.856 2.856 0 01-.897-.61 2.937 2.937 0 01-.617-.962 3.393 3.393 0 01-.225-1.245zm.584-.26h4.184a2.98 2.98 0 00-.17-.841 2.536 2.536 0 00-.391-.714 1.702 1.702 0 00-.64-.504 1.945 1.945 0 00-.863-.188c-.566 0-1.049.214-1.448.642-.397.428-.621.963-.672 1.605zm6.392 3.16v-5.778h.556v3.703l3.563-3.703h.732l-2.516 2.557 2.593 3.22h-.7l-2.273-2.822-1.398 1.417v1.406h-.557zm5.875-2.889c0-.546.129-1.05.385-1.51a2.94 2.94 0 011.058-1.108 2.82 2.82 0 011.486-.409c.896 0 1.66.36 2.29 1.08l-.385.392a3.908 3.908 0 00-.886-.703 2.057 2.057 0 00-1.03-.249c-.418 0-.805.113-1.162.338a2.385 2.385 0 00-.847.913c-.21.384-.314.802-.314 1.256 0 .697.229 1.29.688 1.776a2.228 2.228 0 001.68.725c.686 0 1.323-.328 1.91-.985l.402.366a3.69 3.69 0 01-1.041.846c-.37.2-.805.299-1.305.299-.543 0-1.04-.135-1.492-.404-.447-.273-.8-.64-1.057-1.101a3.128 3.128 0 01-.38-1.522zM12.27 14.424c-.584.43-1.294.753-2.131.968a9.156 9.156 0 01-2.54.352c-1.167 0-2.159-.186-2.976-.557a5.135 5.135 0 01-1.956-1.555c-.505-.685-.875-1.506-1.109-2.464-.214-.958-.32-2.014-.32-3.168 0-2.484.554-4.39 1.663-5.72C4.01.93 5.625.256 7.746.256c1.07 0 1.926.088 2.568.264.662.176 1.255.4 1.78.675l-.904 3.109a7.472 7.472 0 00-1.343-.499A5.656 5.656 0 008.36 3.63c-1.051 0-1.849.352-2.394 1.056-.544.685-.817 1.79-.817 3.315 0 .626.068 1.203.205 1.73.136.528.34.988.612 1.38.273.39.623.703 1.051.938.448.215.963.322 1.547.322.642 0 1.187-.078 1.634-.234a6.26 6.26 0 001.197-.616l.876 2.904zm11.08-5.779l.145-2.082h-.088l-1.255 2.14-5.195 6.63h-2.393V.667h3.794v6.98l-.175 1.996h.117l1.197-2.083L24.75.667h2.393v14.666H23.35V8.645zM40.974 4.04H36.86v11.293h-3.911V4.04h-4.115V.667h12.141V4.04zm10.477 4.605l.146-2.082h-.088l-1.255 2.14-5.195 6.63h-2.393V.667h3.794v6.98l-.175 1.996h.117l1.196-2.083L52.853.667h2.393v14.666h-3.794V8.645zM81.74 4.04h-4.612v11.293h-3.794V.667h12.2v14.666H81.74V4.04zm7.04-2.523c.778-.352 1.702-.626 2.773-.821A16.995 16.995 0 0194.91.373c1.012 0 1.858.127 2.54.382.68.234 1.215.576 1.605 1.026.408.45.69.988.846 1.614.175.625.263 1.33.263 2.112 0 .86-.03 1.73-.088 2.61-.058.86-.097 1.711-.117 2.552 0 .841.03 1.662.088 2.464.058.782.204 1.526.438 2.23h-3.094l-.613-2.024h-.146c-.39.606-.934 1.134-1.634 1.583-.681.43-1.567.646-2.656.646-.681 0-1.294-.098-1.839-.293a4.266 4.266 0 01-1.4-.88 4.201 4.201 0 01-.906-1.35 4.64 4.64 0 01-.32-1.76c0-.9.194-1.652.583-2.258.409-.626.983-1.125 1.722-1.496.759-.392 1.654-.656 2.685-.792 1.05-.157 2.218-.206 3.502-.147.136-1.095.059-1.877-.233-2.347-.292-.489-.944-.733-1.956-.733-.758 0-1.566.078-2.422.235-.837.156-1.527.361-2.072.616l-.905-2.846zm4.816 10.912c.759 0 1.362-.166 1.81-.498.446-.352.777-.724.992-1.115V8.909a10.542 10.542 0 00-1.752-.03 6.267 6.267 0 00-1.459.265c-.428.137-.769.332-1.021.587-.254.254-.38.576-.38.967 0 .548.155.978.467 1.291.33.293.778.44 1.343.44zM103.348.667h2.772l.438 1.76h.117c.506-.744 1.099-1.291 1.78-1.643.701-.352 1.547-.528 2.539-.528 1.829 0 3.201.587 4.115 1.76.915 1.154 1.372 3.021 1.372 5.603 0 1.251-.146 2.385-.438 3.402-.291.997-.729 1.848-1.313 2.552a5.528 5.528 0 01-2.101 1.614c-.818.371-1.761.557-2.831.557-.603 0-1.099-.049-1.489-.147a4.625 4.625 0 01-1.167-.41V21.2h-3.794V.667zm6.508 2.816c-.74 0-1.323.185-1.751.557-.409.371-.73.929-.963 1.672v6.101c.272.215.564.391.875.528.331.118.759.176 1.284.176 1.09 0 1.908-.381 2.452-1.144.545-.782.817-2.063.817-3.842 0-1.291-.214-2.288-.642-2.992-.428-.704-1.119-1.056-2.072-1.056zm14.069 5.778h-1.022v6.072h-3.794V.667h3.794v6.248l.905-.411 3.415-5.837h4.057l-3.532 5.573-1.488 1.115 1.634 1.144 3.94 6.834h-4.348l-3.561-6.072z" fill="#fff"/><path d="M64.342 10.667A2.66 2.66 0 0066.995 8a2.66 2.66 0 00-2.653-2.667A2.66 2.66 0 0061.688 8a2.66 2.66 0 002.654 2.667z" fill="#F1C650"/></svg>