<svg width="78" height="31" fill="none" xmlns="http://www.w3.org/2000/svg"><path d="M5.176 28.546a1.95 1.95 0 00-.567-1.412 1.836 1.836 0 00-1.367-.577c-.485 0-.905.153-1.259.463a1.913 1.913 0 00-.648 1.117H.817v-1.498H0v3.813h.817V28.9h.518c.081.463.3.855.648 1.166.349.31.768.468 1.259.468.533 0 .991-.19 1.367-.577a1.94 1.94 0 00.567-1.412zm-.818 0c0 .36-.109.659-.326.893a1.043 1.043 0 01-1.575 0c-.223-.234-.332-.534-.332-.893 0-.36.109-.66.332-.9.218-.234.48-.354.785-.354.305 0 .566.12.79.355.217.24.326.539.326.899zm2.122-1.907v3.814h.818V29.2h.79c.392 0 .719-.126.975-.37.256-.246.387-.551.387-.91 0-.366-.131-.665-.387-.916-.262-.245-.583-.365-.975-.365H6.48zm1.58.735c.164 0 .3.055.409.158a.514.514 0 01.163.387.514.514 0 01-.163.387.572.572 0 01-.409.158h-.762v-1.09h.762zm6.07 3.079v-3.814h-.708l-1.88 2.424V26.64h-.816v3.814h.708l1.88-2.425v2.425h.817zm1.032-.736v1.526h.817v-.79h2.288v.79h.818v-1.526h-.463V26.64h-2.643v1.171c0 .256-.021.496-.065.72a3.645 3.645 0 01-.142.544c-.054.131-.114.25-.185.365-.07.11-.114.18-.142.213-.032.027-.049.054-.065.065h-.218zm1.635-1.907v-.436h1.007v2.343h-1.607l.066-.065c.038-.044.087-.115.147-.218.06-.104.114-.224.174-.36.06-.136.109-.321.147-.545.044-.223.066-.463.066-.719zm6.859 2.643v-3.814h-.708l-1.88 2.424V26.64h-.817v3.814h.708l1.88-2.425v2.425h.817zm2.285-3.814h-.817v1.171c0 .458.12.812.36 1.063.245.256.577.381 1.002.381.365 0 .665-.07.899-.218v1.417h.817v-3.814h-.817v1.607l-.093.07a1.185 1.185 0 01-.67.202c-.218 0-.387-.06-.506-.18-.115-.125-.175-.299-.175-.528v-1.17zm7.051 0h-.817v1.525h-1.634V26.64h-.817v3.814h.817V28.9h1.634v1.553h.817v-3.814zm3.485 2.206h-.926l.463-1.253.463 1.253zm.273.709l.327.899h.871l-1.498-3.814h-.872l-1.498 3.814h.872l.327-.9h1.47zm4.761-2.915h-.817v3.814h.817v-1.09l.49-.545 1.118 1.635h.953l-1.525-2.234 1.416-1.58h-.953L41.512 28.3v-1.662zm4.22 1.907c0-.35.12-.649.36-.889.234-.245.523-.364.866-.364.343 0 .632.12.866.364.24.24.36.54.36.889 0 .354-.12.648-.36.888a1.149 1.149 0 01-.866.365c-.343 0-.632-.12-.866-.365-.24-.24-.36-.534-.36-.889zm-.844 0a1.9 1.9 0 00.599 1.405c.398.387.888.583 1.471.583.583 0 1.073-.196 1.47-.583a1.9 1.9 0 00.6-1.405c0-.55-.201-1.02-.6-1.406-.397-.387-.887-.583-1.47-.583s-1.073.196-1.471.583a1.89 1.89 0 00-.6 1.405zm7.487-.246l-1.308-1.661h-.735v3.814h.817v-2.534l1.226 1.553 1.226-1.564v2.545h.817v-3.814h-.724l-1.32 1.661zm6.806-1.661h-3.242v3.814h.818v-3.079h1.607v3.079h.817v-3.814zm3.485 2.206h-.926l.463-1.253.463 1.253zm.272.709l.327.899h.872l-1.498-3.814h-.872l-1.498 3.814h.871l.327-.9h1.471zm5.555-2.915h-.818v1.525H66.04V26.64h-.817v3.814h.817V28.9h1.634v1.553h.817v-3.814zm2.338 0h-.816v3.814h.817v-3.814zm4.356 0h-1.689c-.38 0-.692.12-.937.36-.245.24-.37.539-.37.893 0 .152.027.294.07.43.05.137.104.24.17.316.06.077.125.147.207.213.076.065.13.109.163.125.027.011.055.027.07.033l-.816 1.444h.871l.736-1.335h.708v1.335h.817v-3.814zm-2.179 1.253a.506.506 0 01.518-.518h.844v1.008h-.844a.524.524 0 01-.37-.141.465.465 0 01-.148-.349z" fill="#fff"/><path d="M2.49 0H0v17.988h2.49v-6.674c0-1.129.281-2.02.843-2.646.562-.628 1.33-.954 2.283-.954.818 0 1.502.301 2.051.878.55.59.83 1.33.83 2.22V18H11v-7.187c0-1.656-.452-2.96-1.355-3.94-.904-.977-2.088-1.467-3.528-1.467-.416 0-.83.05-1.234.163a5.199 5.199 0 00-1.013.377 5.138 5.138 0 00-.757.464c-.232.175-.39.3-.464.376-.073.075-.134.126-.158.163V0z" fill="#F0145A"/><path d="M16.567 0H14v17.973h2.567V0zm15.144 12.709l.129-1.284c0-1.72-.565-3.158-1.72-4.313-1.156-1.156-2.594-1.72-4.314-1.72-1.72 0-3.21.616-4.442 1.848-1.232 1.232-1.848 2.696-1.848 4.442 0 1.797.642 3.338 1.9 4.621 1.258 1.284 2.773 1.926 4.518 1.926.668 0 1.284-.103 1.9-.282.617-.206 1.13-.411 1.49-.617a8.47 8.47 0 001.103-.77c.334-.282.565-.488.668-.616.103-.129.18-.206.231-.283l-1.669-1.668-.385.487c-.257.309-.693.617-1.31.95a4.3 4.3 0 01-2.028.488c-1 0-1.848-.308-2.567-.95-.719-.642-1.155-1.386-1.284-2.26h9.628zm-5.905-5.135c.95 0 1.72.282 2.362.821.616.565 1.001 1.258 1.155 2.131h-7.137c.23-.873.642-1.566 1.284-2.13.616-.54 1.412-.822 2.336-.822zm17.879 9.654c0 1.13-.334 2.054-1.027 2.772-.667.694-1.514 1.053-2.567 1.053-.462 0-.925-.077-1.361-.205a4.039 4.039 0 01-1.053-.462 5.954 5.954 0 01-.796-.59c-.23-.232-.385-.386-.462-.463-.077-.077-.128-.154-.18-.205l-1.668 1.668.205.257c.128.18.36.411.668.668.308.23.667.488 1.078.744.41.231.924.437 1.566.616a7.4 7.4 0 002.003.283c1.746 0 3.184-.59 4.39-1.772 1.181-1.206 1.772-2.644 1.772-4.39V5.648h-2.568v1.284l-.436-.385c-.283-.257-.72-.514-1.335-.77a5.085 5.085 0 00-1.952-.386c-1.566 0-2.9.59-4.056 1.798-1.156 1.206-1.72 2.644-1.72 4.364 0 1.72.564 3.158 1.72 4.365 1.155 1.207 2.49 1.797 4.056 1.797.437 0 .848-.05 1.284-.154a8.626 8.626 0 001.027-.385 3.83 3.83 0 00.77-.462c.232-.18.411-.308.463-.36l.18-.18v1.054zm-6.932-5.675c0-1.078.334-1.977 1.027-2.721.693-.745 1.515-1.13 2.44-1.13.924 0 1.745.385 2.438 1.13.668.744 1.027 1.643 1.027 2.721 0 1.079-.36 1.977-1.027 2.722-.693.745-1.514 1.13-2.439 1.13-.924 0-1.746-.385-2.439-1.13-.693-.745-1.027-1.643-1.027-2.722zm22.901 6.419v-7.96c0-1.309-.488-2.413-1.438-3.285-.95-.9-2.182-1.336-3.697-1.336-.59 0-1.18.077-1.746.231-.565.18-1.027.36-1.36.565a6.35 6.35 0 00-.976.72 8.012 8.012 0 00-.59.538c-.078.103-.155.18-.206.257l1.669 1.67.334-.437c.205-.283.564-.54 1.104-.822.539-.282 1.13-.41 1.771-.41.745 0 1.36.23 1.849.667.488.436.719 1.001.719 1.643l-4.494.77c-1.104.18-2.002.616-2.618 1.31-.642.693-.976 1.54-.976 2.541 0 .95.41 1.772 1.232 2.49.848.745 1.875 1.105 3.133 1.105.436 0 .847-.051 1.258-.18a5.54 5.54 0 001.053-.36 3.85 3.85 0 00.77-.461c.23-.18.385-.309.488-.36.077-.077.128-.154.154-.18v1.284h2.567zm-5.905-2.054c-.668 0-1.207-.154-1.592-.462-.41-.308-.59-.667-.59-1.078 0-.437.128-.822.41-1.104a2.06 2.06 0 011.13-.565l3.98-.642v.257c0 1.155-.283 2.028-.873 2.67-.59.616-1.412.924-2.465.924zM65.32 0h-2.567v17.973h2.567V0zm11.675 7.06l-.154-.18a5.534 5.534 0 00-.488-.41c-.231-.18-.488-.334-.77-.514-.283-.154-.668-.282-1.13-.41a6.667 6.667 0 00-1.438-.155c-1.258 0-2.285.36-3.107 1.079-.847.744-1.258 1.566-1.258 2.516 0 .693.154 1.258.462 1.771.309.488.694.848 1.181 1.053.463.231.976.462 1.515.642.54.18 1.027.334 1.515.462.462.154.847.334 1.156.565.308.231.462.54.462.899 0 .462-.18.847-.514 1.13-.334.256-.847.41-1.54.41-.565 0-1.13-.154-1.67-.41-.538-.283-.872-.514-1.052-.694-.154-.18-.282-.334-.36-.436l-1.668 1.669.18.23c.128.155.308.334.564.54.283.23.59.436.925.642.359.205.821.385 1.36.539.54.154 1.13.23 1.72.23 1.361 0 2.491-.384 3.338-1.129.848-.744 1.284-1.669 1.284-2.721 0-.694-.154-1.284-.462-1.746-.308-.488-.693-.848-1.181-1.079a8.959 8.959 0 00-1.515-.642c-.54-.18-1.027-.359-1.515-.462a3.468 3.468 0 01-1.155-.564 1.085 1.085 0 01-.462-.9c0-.333.154-.641.488-.898.308-.256.744-.385 1.309-.385.41 0 .822.103 1.207.283.41.18.693.333.821.462l.283.282 1.669-1.669z" fill="#fff"/></svg>