<svg width="144" height="36" fill="none" xmlns="http://www.w3.org/2000/svg"><g clip-path="url(#clip0)" fill="#fff"><path d="M36.502 18a17.84 17.84 0 00-3.94-11.17A18.281 18.281 0 0022.444.482a18.484 18.484 0 00-11.928 1.215 18.137 18.137 0 00-8.59 8.253A17.778 17.778 0 00.387 21.68a17.957 17.957 0 006.17 10.14 18.4 18.4 0 0011.22 4.175A18.423 18.423 0 0029.202 32.4H17.79a14.739 14.739 0 01-7.957-2.583 14.436 14.436 0 01-5.207-6.471 14.215 14.215 0 01-.744-8.229A14.34 14.34 0 017.844 7.84a14.662 14.662 0 017.366-3.932 14.792 14.792 0 018.346.708 14.57 14.57 0 016.578 5.115 14.269 14.269 0 012.645 7.838V28.8A17.555 17.555 0 0036.502 18z"/><path d="M27.364 26.988v-7.56h-5.67a3.896 3.896 0 01-1.716 1.858 3.977 3.977 0 01-2.512.43 3.947 3.947 0 01-2.25-1.183 3.835 3.835 0 01-.437-4.737 3.92 3.92 0 011.997-1.562 3.982 3.982 0 012.55-.025 3.924 3.924 0 012.028 1.523h5.73a9.066 9.066 0 00-2.475-4.317 9.26 9.26 0 00-4.404-2.394 9.346 9.346 0 00-5.022.24 9.228 9.228 0 00-4.149 2.802 9.037 9.037 0 00-2.04 4.533 8.982 8.982 0 00.672 4.914 9.124 9.124 0 003.187 3.837 9.307 9.307 0 004.753 1.617l9.758.024zm21.792-14.064a6.34 6.34 0 00-3.485 1.05 6.21 6.21 0 00-2.307 2.78 6.114 6.114 0 00-.352 3.577 6.166 6.166 0 001.72 3.168 6.306 6.306 0 003.216 1.691 6.36 6.36 0 003.625-.354 6.26 6.26 0 002.816-2.281 6.132 6.132 0 001.057-3.439 6.057 6.057 0 00-.462-2.382 6.126 6.126 0 00-1.363-2.019 6.225 6.225 0 00-2.05-1.34 6.295 6.295 0 00-2.415-.45zm0 9.432a3.2 3.2 0 01-2.313-.938 3.116 3.116 0 01-.69-1.06 3.081 3.081 0 01-.21-1.242 3.14 3.14 0 01.87-2.374 3.224 3.224 0 011.07-.74 3.262 3.262 0 013.628.74c.301.317.534.69.683 1.098.15.409.213.843.186 1.276a3.08 3.08 0 01-.21 1.245 3.114 3.114 0 01-.693 1.061 3.166 3.166 0 01-1.063.704c-.399.16-.827.239-1.258.23zm11.364-7.08V13.2h-3.066v11.736h3.066V19.38a2.892 2.892 0 01.25-1.32c.185-.415.465-.782.82-1.072a3.01 3.01 0 012.58-.596V13.02a3.69 3.69 0 00-2.198.54 3.612 3.612 0 00-1.452 1.716zm14.211-.636a4.702 4.702 0 00-1.727-1.312 4.766 4.766 0 00-2.142-.404c-.791.03-1.57.216-2.288.544a6.007 6.007 0 00-1.901 1.37 5.915 5.915 0 00-1.222 1.983 5.854 5.854 0 00-.356 2.295c-.036.78.085 1.56.356 2.295.27.734.686 1.409 1.222 1.984a6.009 6.009 0 001.9 1.37 6.08 6.08 0 002.29.543 4.765 4.765 0 002.14-.404 4.701 4.701 0 001.728-1.312v1.392h3.067V13.2H74.73v1.44zm-3.297 7.788a3.227 3.227 0 01-1.295-.221 3.19 3.19 0 01-1.094-.718 3.106 3.106 0 01-.909-2.373c0-.86.347-1.683.963-2.29a3.309 3.309 0 012.323-.95c.871 0 1.707.342 2.323.95.616.607.962 1.43.962 2.29a3.117 3.117 0 01-.904 2.36 3.238 3.238 0 01-2.369.952zm15.647-9.504a4.088 4.088 0 00-1.985.371 4.028 4.028 0 00-1.555 1.273V13.2h-3.054v11.736h3.054v-6.288c0-2.04 1.119-2.904 2.616-2.904a2.231 2.231 0 011.743.658 2.143 2.143 0 01.605 1.742v6.828h3.066v-7.2c0-3.108-1.971-4.848-4.49-4.848zm16.098 1.788a4.504 4.504 0 00-1.674-1.357 4.571 4.571 0 00-2.123-.43 6.008 6.008 0 00-2.295.472 5.965 5.965 0 00-1.932 1.309 5.87 5.87 0 00-1.272 1.942 5.81 5.81 0 00-.414 2.276 5.797 5.797 0 00.41 2.278 5.86 5.86 0 001.272 1.944 5.951 5.951 0 001.934 1.309 6.02 6.02 0 002.297.47 4.57 4.57 0 002.123-.432 4.504 4.504 0 001.674-1.357v1.272a2.715 2.715 0 01-.864 2.161 2.796 2.796 0 01-2.239.719 3.103 3.103 0 01-1.822-.335 3.044 3.044 0 01-1.293-1.309l-2.616 1.488a6.05 6.05 0 002.408 2.215c.994.506 2.11.732 3.226.653 3.127 0 6.193-1.74 6.193-5.58V13.2h-2.993v1.512zm-3.322 7.428a3.278 3.278 0 01-1.783-.574 3.21 3.21 0 01-1.165-1.45 3.162 3.162 0 01-.157-1.843 3.183 3.183 0 01.902-1.622 3.264 3.264 0 011.661-.86 3.292 3.292 0 011.866.189c.59.243 1.094.651 1.449 1.175a3.18 3.18 0 01.549 1.77 3.119 3.119 0 01-.95 2.322 3.215 3.215 0 01-2.372.894zm14.662-9.216a6.165 6.165 0 00-2.42.432 6.09 6.09 0 00-2.048 1.34 5.996 5.996 0 00-1.343 2.03 5.922 5.922 0 00-.419 2.39c-.03.84.121 1.678.44 2.458.32.78.803 1.484 1.417 2.068a6.09 6.09 0 002.146 1.32 6.164 6.164 0 002.506.346 6.08 6.08 0 002.89-.612 5.99 5.99 0 002.245-1.896l-2.433-1.404a3.307 3.307 0 01-1.191.907 3.347 3.347 0 01-1.474.293 3.138 3.138 0 01-2.105-.479 3.068 3.068 0 01-1.278-1.717h9.004c.076-.396.116-.797.122-1.2a5.867 5.867 0 00-1.647-4.436 6.024 6.024 0 00-2.013-1.372 6.08 6.08 0 00-2.399-.468zM111.404 18a2.908 2.908 0 011.091-1.789 2.986 2.986 0 012.024-.61 2.897 2.897 0 011.935.646A2.823 2.823 0 01117.463 18h-6.059zm20.173-3.372a4.698 4.698 0 00-1.707-1.294 4.765 4.765 0 00-2.113-.41 6.08 6.08 0 00-2.289.544 6.006 6.006 0 00-1.901 1.37 5.916 5.916 0 00-1.222 1.983 5.848 5.848 0 00-.356 2.295c-.036.78.085 1.56.356 2.295a5.915 5.915 0 001.222 1.984 6.008 6.008 0 001.901 1.37 6.081 6.081 0 002.289.543 4.762 4.762 0 002.141-.404 4.703 4.703 0 001.728-1.312v1.392h3.066V13.2h-3.066l-.049 1.428zm-3.297 7.788a3.223 3.223 0 01-2.373-.948 3.133 3.133 0 01-.9-2.364c0-.86.346-1.683.962-2.29a3.31 3.31 0 012.323-.95 3.31 3.31 0 012.323.95c.616.607.962 1.43.962 2.29a3.119 3.119 0 01-.908 2.377 3.238 3.238 0 01-2.389.947v-.012zm12.106-7.2V13.2h-3.066v11.736h3.066V19.38a2.898 2.898 0 011.07-2.392 3.007 3.007 0 012.58-.596V13.02a3.69 3.69 0 00-2.198.54 3.614 3.614 0 00-1.452 1.716v-.06z"/></g><defs><clipPath id="clip0"><path fill="#fff" d="M0 0h144v36H0z"/></clipPath></defs></svg>