<svg width="161" height="40" fill="none" xmlns="http://www.w3.org/2000/svg"><g clip-path="url(#clip0)" fill="#fff"><path d="M57.65 24.437c-1.588 0-2.23-1.127-2.23-3.081v-5.405h4.6v-2.06h-4.6v-3.45h-2.229v11.126c0 3.17 1.124 4.93 3.941 4.93 1.391 0 2.532-.493 3.21-1.039l-.696-1.708c-.463.317-1.123.687-1.997.687zm9.61-10.828c-1.569 0-3.067.44-4.19 1.127l.588 1.76c.999-.527 1.926-.915 3.46-.915 2.478 0 2.853 1.602 2.853 3.909-.838-.599-2.14-.792-3.12-.792-2.711 0-4.744 1.408-4.744 3.943 0 2.395 1.57 3.82 3.852 3.82 2.068 0 3.263-.845 4.012-1.795v1.602h2.104v-7.606c0-3.204-1.248-5.052-4.815-5.052zm2.693 9.279c-.642.74-1.587 1.602-3.228 1.602-1.444 0-2.264-.775-2.264-1.954 0-1.427 1.337-2.043 2.675-2.043 1.087 0 2.032.282 2.817.828v1.567zm12.161-9.279c-1.73 0-3.406.74-4.262 1.743v-1.46h-2.229v17.904h2.23v-6.091c.89.58 2.21.845 3.548.845 3.94 0 6.526-2.888 6.526-6.673-.018-3.644-2.247-6.267-5.813-6.267zm-.927 10.88c-1.195 0-2.23-.228-3.353-.968v-6.144c.785-.968 2.14-1.708 3.62-1.708 2.586 0 4.066 1.796 4.066 4.296.018 2.623-1.658 4.525-4.333 4.525zm21.041-10.862l-3.673.88c-.856-.58-1.944-.915-3.174-.915-3.157 0-5.136 2.06-5.136 4.542 0 1.814 1.034 3.363 2.817 4.067-.231.282-.338.67-.338 1.039 0 .352.089.74.303 1.02-2.407.494-4.012 1.761-4.012 3.768 0 2.694 2.728 3.944 6.383 3.944 3.656 0 6.384-1.303 6.384-3.944 0-2.693-2.728-3.996-6.384-3.996-.25 0-.499.035-.748.035a1.463 1.463 0 01-.25-.827c0-.23.035-.476.142-.687.286.035.553.035.839.035 3.102 0 5.135-1.99 5.135-4.454a4.06 4.06 0 00-.588-2.148l2.371-.58-.071-1.779zm-6.83 12.236c2.675 0 4.298.828 4.298 2.2 0 1.41-1.694 2.149-4.298 2.149-2.585 0-4.297-.775-4.297-2.148 0-1.373 1.623-2.201 4.297-2.201zm-.017-5.035c-1.837 0-3.032-1.127-3.032-2.676 0-1.55 1.195-2.747 3.032-2.747 1.872 0 3.03 1.215 3.03 2.747 0 1.602-1.283 2.676-3.03 2.676zm14.425-7.218c-4.119 0-6.473 2.87-6.473 6.478 0 3.909 2.657 6.48 6.723 6.48 1.676 0 3.495-.529 4.707-1.62l-.695-1.743c-.802.739-2.229 1.302-3.852 1.302-2.46 0-4.19-1.373-4.386-3.714h9.647a6.72 6.72 0 00.142-1.48c0-3.45-2.585-5.703-5.813-5.703zm-4.101 5.37c.25-1.902 1.694-3.31 3.994-3.31 2.176 0 3.513 1.267 3.62 3.31h-7.614zm15.014-3.645v-1.461h-2.229v12.394h2.229v-8.785c.481-.916 1.177-1.76 2.621-1.76.749 0 1.088.105 1.694.475l.785-2.06c-.41-.3-.927-.476-1.944-.476-1.605 0-2.514.74-3.156 1.673zm7.471 10.933h2.229V13.874h-2.229v12.394zm1.177-18.363c-.784 0-1.444.528-1.444 1.32 0 .916.678 1.427 1.444 1.427.696 0 1.373-.528 1.373-1.426-.018-.793-.677-1.32-1.373-1.32zm11.359 5.757c-1.641 0-3.228.793-4.101 1.743v-1.514h-2.229v12.395h2.229v-8.944a4.828 4.828 0 013.548-1.602c2.336 0 3.549 1.215 3.549 3.803v6.743h2.229V19.12c0-3.89-1.962-5.458-5.225-5.458zM161 19.28c0-3.416-2.585-5.67-5.831-5.67-4.119 0-6.472 2.87-6.472 6.48 0 3.908 2.656 6.478 6.722 6.478 1.676 0 3.495-.528 4.708-1.62l-.696-1.742c-.802.739-2.229 1.302-3.852 1.302-2.46 0-4.19-1.373-4.386-3.714h9.647c.107-.405.16-.898.16-1.514zm-9.932-.3c.25-1.901 1.694-3.31 3.994-3.31 2.176 0 3.513 1.268 3.62 3.31h-7.614zm-110.644-.054c0-.035 0-.088-.018-.123a19.793 19.793 0 00-1.605-6.726C36.786 23.434 26.73 32.043 14.64 32.043a24.66 24.66 0 01-12.893-3.609c.197.423.41.845.642 1.25v.018c.232.387.464.774.714 1.162.017.017.017.035.035.053.5.756 1.052 1.46 1.64 2.147.036.036.054.07.09.106.588.669 1.23 1.285 1.89 1.866a.83.83 0 01.143.123c.66.564 1.373 1.092 2.104 1.567.053.036.125.07.196.124.339.21.678.422 1.034.616a.351.351 0 01.107.07c.375.212.767.405 1.16.581l.213.106c.339.158.678.3 1.034.422.072.036.161.053.232.088.41.141.82.282 1.23.405.072.018.143.035.232.07.357.106.714.194 1.07.282.107.018.197.053.303.07.428.089.856.177 1.284.23.054 0 .107.017.179.017.392.053.766.088 1.159.124.125.017.232.017.356.017A17.1 17.1 0 0020.15 40c11.216 0 20.31-8.944 20.31-19.982-.017-.405-.017-.74-.035-1.092zM35.449 6.85a20.537 20.537 0 00-4.262-3.645c-3.406 4.12-8.612 6.76-14.443 6.76A18.685 18.685 0 015.42 6.18C2.532 9.208.57 13.08 0 17.412c3.798 2.412 8.31 3.803 13.16 3.803 9.967 0 18.544-5.898 22.289-14.366zm-7.846-5.46A20.621 20.621 0 0020.132 0c-2.996 0-5.849.651-8.399 1.796a24.644 24.644 0 007.347 1.127 25.29 25.29 0 008.523-1.532z"/></g><defs><clipPath id="clip0"><path fill="#fff" d="M0 0h161v40H0z"/></clipPath></defs></svg>